<mxfile host="app.diagrams.net" agent="Mozilla/5.0 (Windows NT 10.0; Win64; x64) AppleWebKit/537.36 (KHTML, like Gecko) Chrome/131.0.0.0 Safari/537.36" version="24.9.1">
  <diagram name="Page-1" id="RX876EHW3NxuH8kurLuv">
    <mxGraphModel dx="568" dy="324" grid="0" gridSize="10" guides="1" tooltips="1" connect="1" arrows="1" fold="1" page="1" pageScale="1" pageWidth="4681" pageHeight="3300" math="0" shadow="0">
      <root>
        <mxCell id="0" />
        <mxCell id="1" parent="0" />
        <mxCell id="qCOEzPy5PeNLTDnwAvbh-1" value="" style="whiteSpace=wrap;html=1;aspect=fixed;" parent="1" vertex="1">
          <mxGeometry x="317" y="51" width="660" height="660" as="geometry" />
        </mxCell>
        <mxCell id="qCOEzPy5PeNLTDnwAvbh-2" value="Customer" style="shape=umlActor;verticalLabelPosition=bottom;verticalAlign=top;html=1;outlineConnect=0;" parent="1" vertex="1">
          <mxGeometry x="238" y="323" width="30" height="60" as="geometry" />
        </mxCell>
        <mxCell id="qCOEzPy5PeNLTDnwAvbh-3" value="Admin" style="shape=umlActor;verticalLabelPosition=bottom;verticalAlign=top;html=1;outlineConnect=0;" parent="1" vertex="1">
          <mxGeometry x="1059" y="327" width="30" height="60" as="geometry" />
        </mxCell>
        <mxCell id="qCOEzPy5PeNLTDnwAvbh-5" value="Browse Menu" style="ellipse;whiteSpace=wrap;html=1;" parent="1" vertex="1">
          <mxGeometry x="384" y="62" width="85" height="57" as="geometry" />
        </mxCell>
        <mxCell id="qCOEzPy5PeNLTDnwAvbh-13" value="" style="endArrow=none;html=1;rounded=0;exitX=1;exitY=0.3333333333333333;exitDx=0;exitDy=0;exitPerimeter=0;entryX=0;entryY=0.5;entryDx=0;entryDy=0;" parent="1" source="qCOEzPy5PeNLTDnwAvbh-2" target="qCOEzPy5PeNLTDnwAvbh-5" edge="1">
          <mxGeometry width="50" height="50" relative="1" as="geometry">
            <mxPoint x="426" y="358" as="sourcePoint" />
            <mxPoint x="476" y="308" as="targetPoint" />
          </mxGeometry>
        </mxCell>
        <mxCell id="qCOEzPy5PeNLTDnwAvbh-16" value="Add Item to Cart" style="ellipse;whiteSpace=wrap;html=1;" parent="1" vertex="1">
          <mxGeometry x="386" y="131" width="85" height="57" as="geometry" />
        </mxCell>
        <mxCell id="qCOEzPy5PeNLTDnwAvbh-18" value="Checkout" style="ellipse;whiteSpace=wrap;html=1;" parent="1" vertex="1">
          <mxGeometry x="394" y="339" width="85" height="57" as="geometry" />
        </mxCell>
        <mxCell id="qCOEzPy5PeNLTDnwAvbh-20" value="Logout" style="ellipse;whiteSpace=wrap;html=1;" parent="1" vertex="1">
          <mxGeometry x="593" y="627" width="85" height="57" as="geometry" />
        </mxCell>
        <mxCell id="qCOEzPy5PeNLTDnwAvbh-21" value="Manage Inventory" style="ellipse;whiteSpace=wrap;html=1;" parent="1" vertex="1">
          <mxGeometry x="851" y="276" width="85" height="57" as="geometry" />
        </mxCell>
        <mxCell id="qCOEzPy5PeNLTDnwAvbh-22" value="Manage Menu" style="ellipse;whiteSpace=wrap;html=1;" parent="1" vertex="1">
          <mxGeometry x="872" y="153" width="85" height="57" as="geometry" />
        </mxCell>
        <mxCell id="qCOEzPy5PeNLTDnwAvbh-24" value="" style="endArrow=none;html=1;rounded=0;exitX=1;exitY=0.3333333333333333;exitDx=0;exitDy=0;exitPerimeter=0;entryX=0;entryY=0.5;entryDx=0;entryDy=0;" parent="1" source="qCOEzPy5PeNLTDnwAvbh-2" target="qCOEzPy5PeNLTDnwAvbh-16" edge="1">
          <mxGeometry width="50" height="50" relative="1" as="geometry">
            <mxPoint x="750" y="357" as="sourcePoint" />
            <mxPoint x="800" y="307" as="targetPoint" />
          </mxGeometry>
        </mxCell>
        <mxCell id="qCOEzPy5PeNLTDnwAvbh-25" value="" style="endArrow=none;html=1;rounded=0;exitX=1;exitY=0.3333333333333333;exitDx=0;exitDy=0;exitPerimeter=0;entryX=0;entryY=0.5;entryDx=0;entryDy=0;" parent="1" source="qCOEzPy5PeNLTDnwAvbh-2" target="qCOEzPy5PeNLTDnwAvbh-18" edge="1">
          <mxGeometry width="50" height="50" relative="1" as="geometry">
            <mxPoint x="750" y="357" as="sourcePoint" />
            <mxPoint x="800" y="307" as="targetPoint" />
          </mxGeometry>
        </mxCell>
        <mxCell id="qCOEzPy5PeNLTDnwAvbh-26" value="" style="endArrow=none;html=1;rounded=0;entryX=0;entryY=0.5;entryDx=0;entryDy=0;" parent="1" target="qCOEzPy5PeNLTDnwAvbh-20" edge="1">
          <mxGeometry width="50" height="50" relative="1" as="geometry">
            <mxPoint x="268" y="345" as="sourcePoint" />
            <mxPoint x="800" y="307" as="targetPoint" />
          </mxGeometry>
        </mxCell>
        <mxCell id="qCOEzPy5PeNLTDnwAvbh-40" value="&amp;lt;&amp;lt;include&amp;gt;&amp;gt;" style="html=1;verticalAlign=bottom;labelBackgroundColor=none;endArrow=open;endFill=0;dashed=1;rounded=0;exitX=1;exitY=0.5;exitDx=0;exitDy=0;entryX=0;entryY=0.5;entryDx=0;entryDy=0;" parent="1" source="qCOEzPy5PeNLTDnwAvbh-18" target="qCOEzPy5PeNLTDnwAvbh-42" edge="1">
          <mxGeometry width="160" relative="1" as="geometry">
            <mxPoint x="695" y="443" as="sourcePoint" />
            <mxPoint x="855" y="443" as="targetPoint" />
          </mxGeometry>
        </mxCell>
        <mxCell id="qCOEzPy5PeNLTDnwAvbh-42" value="Payment Method" style="ellipse;whiteSpace=wrap;html=1;" parent="1" vertex="1">
          <mxGeometry x="562" y="279" width="85" height="57" as="geometry" />
        </mxCell>
        <mxCell id="qCOEzPy5PeNLTDnwAvbh-44" value="Add Items" style="ellipse;whiteSpace=wrap;html=1;" parent="1" vertex="1">
          <mxGeometry x="840" y="65" width="85" height="57" as="geometry" />
        </mxCell>
        <mxCell id="qCOEzPy5PeNLTDnwAvbh-45" value="Delete Items" style="ellipse;whiteSpace=wrap;html=1;" parent="1" vertex="1">
          <mxGeometry x="736" y="77" width="85" height="57" as="geometry" />
        </mxCell>
        <mxCell id="qCOEzPy5PeNLTDnwAvbh-46" value="Edit Items" style="ellipse;whiteSpace=wrap;html=1;" parent="1" vertex="1">
          <mxGeometry x="647" y="110" width="85" height="57" as="geometry" />
        </mxCell>
        <mxCell id="qCOEzPy5PeNLTDnwAvbh-51" value="Update Stock Levels" style="ellipse;whiteSpace=wrap;html=1;" parent="1" vertex="1">
          <mxGeometry x="712" y="266" width="85" height="57" as="geometry" />
        </mxCell>
        <mxCell id="qCOEzPy5PeNLTDnwAvbh-54" value="View&amp;nbsp;Low Stock Items" style="ellipse;whiteSpace=wrap;html=1;" parent="1" vertex="1">
          <mxGeometry x="712" y="353" width="85" height="57" as="geometry" />
        </mxCell>
        <mxCell id="qCOEzPy5PeNLTDnwAvbh-57" value="" style="endArrow=none;html=1;rounded=0;entryX=0;entryY=0.3333333333333333;entryDx=0;entryDy=0;entryPerimeter=0;exitX=1;exitY=0.5;exitDx=0;exitDy=0;" parent="1" source="qCOEzPy5PeNLTDnwAvbh-22" target="qCOEzPy5PeNLTDnwAvbh-3" edge="1">
          <mxGeometry width="50" height="50" relative="1" as="geometry">
            <mxPoint x="777" y="388" as="sourcePoint" />
            <mxPoint x="827" y="338" as="targetPoint" />
          </mxGeometry>
        </mxCell>
        <mxCell id="qCOEzPy5PeNLTDnwAvbh-58" value="" style="endArrow=none;html=1;rounded=0;entryX=0;entryY=0.3333333333333333;entryDx=0;entryDy=0;entryPerimeter=0;exitX=1;exitY=0.5;exitDx=0;exitDy=0;" parent="1" source="qCOEzPy5PeNLTDnwAvbh-21" target="qCOEzPy5PeNLTDnwAvbh-3" edge="1">
          <mxGeometry width="50" height="50" relative="1" as="geometry">
            <mxPoint x="996" y="330" as="sourcePoint" />
            <mxPoint x="1097" y="480" as="targetPoint" />
          </mxGeometry>
        </mxCell>
        <mxCell id="qCOEzPy5PeNLTDnwAvbh-59" value="" style="endArrow=none;html=1;rounded=0;entryX=0;entryY=0.3333333333333333;entryDx=0;entryDy=0;entryPerimeter=0;exitX=1;exitY=0.5;exitDx=0;exitDy=0;" parent="1" source="qCOEzPy5PeNLTDnwAvbh-20" target="qCOEzPy5PeNLTDnwAvbh-3" edge="1">
          <mxGeometry width="50" height="50" relative="1" as="geometry">
            <mxPoint x="967.9999999999995" y="514.5" as="sourcePoint" />
            <mxPoint x="1069" y="357" as="targetPoint" />
          </mxGeometry>
        </mxCell>
        <mxCell id="qCOEzPy5PeNLTDnwAvbh-60" value="Login" style="ellipse;whiteSpace=wrap;html=1;" parent="1" vertex="1">
          <mxGeometry x="588" y="449" width="85" height="57" as="geometry" />
        </mxCell>
        <mxCell id="qCOEzPy5PeNLTDnwAvbh-61" value="" style="endArrow=none;html=1;rounded=0;exitX=0;exitY=0.5;exitDx=0;exitDy=0;entryX=1;entryY=0.3333333333333333;entryDx=0;entryDy=0;entryPerimeter=0;" parent="1" source="qCOEzPy5PeNLTDnwAvbh-60" target="qCOEzPy5PeNLTDnwAvbh-2" edge="1">
          <mxGeometry width="50" height="50" relative="1" as="geometry">
            <mxPoint x="734" y="393" as="sourcePoint" />
            <mxPoint x="784" y="343" as="targetPoint" />
          </mxGeometry>
        </mxCell>
        <mxCell id="qCOEzPy5PeNLTDnwAvbh-62" value="" style="endArrow=none;html=1;rounded=0;exitX=1;exitY=0.5;exitDx=0;exitDy=0;entryX=0;entryY=0.3333333333333333;entryDx=0;entryDy=0;entryPerimeter=0;" parent="1" source="qCOEzPy5PeNLTDnwAvbh-60" target="qCOEzPy5PeNLTDnwAvbh-3" edge="1">
          <mxGeometry width="50" height="50" relative="1" as="geometry">
            <mxPoint x="734" y="393" as="sourcePoint" />
            <mxPoint x="784" y="343" as="targetPoint" />
          </mxGeometry>
        </mxCell>
        <mxCell id="hG35cT_2jclPZxar5-mF-7" value="View Cart" style="ellipse;whiteSpace=wrap;html=1;" vertex="1" parent="1">
          <mxGeometry x="389" y="273" width="85" height="57" as="geometry" />
        </mxCell>
        <mxCell id="hG35cT_2jclPZxar5-mF-8" value="" style="endArrow=none;html=1;rounded=0;entryX=0;entryY=0.5;entryDx=0;entryDy=0;" edge="1" parent="1" target="hG35cT_2jclPZxar5-mF-7">
          <mxGeometry width="50" height="50" relative="1" as="geometry">
            <mxPoint x="269" y="341" as="sourcePoint" />
            <mxPoint x="394" y="305" as="targetPoint" />
          </mxGeometry>
        </mxCell>
        <mxCell id="hG35cT_2jclPZxar5-mF-9" value="Remove Item to Cart" style="ellipse;whiteSpace=wrap;html=1;" vertex="1" parent="1">
          <mxGeometry x="389" y="203" width="85" height="57" as="geometry" />
        </mxCell>
        <mxCell id="hG35cT_2jclPZxar5-mF-11" value="" style="endArrow=none;html=1;rounded=0;entryX=0;entryY=0.5;entryDx=0;entryDy=0;exitX=1;exitY=0.3333333333333333;exitDx=0;exitDy=0;exitPerimeter=0;" edge="1" parent="1" source="qCOEzPy5PeNLTDnwAvbh-2" target="hG35cT_2jclPZxar5-mF-9">
          <mxGeometry width="50" height="50" relative="1" as="geometry">
            <mxPoint x="279" y="351" as="sourcePoint" />
            <mxPoint x="402" y="369" as="targetPoint" />
          </mxGeometry>
        </mxCell>
        <mxCell id="hG35cT_2jclPZxar5-mF-14" value="Customer Registration" style="ellipse;whiteSpace=wrap;html=1;" vertex="1" parent="1">
          <mxGeometry x="593" y="529" width="85" height="57" as="geometry" />
        </mxCell>
        <mxCell id="hG35cT_2jclPZxar5-mF-15" value="" style="endArrow=none;html=1;rounded=0;exitX=1;exitY=0.3333333333333333;exitDx=0;exitDy=0;exitPerimeter=0;entryX=0;entryY=0.5;entryDx=0;entryDy=0;" edge="1" parent="1" source="qCOEzPy5PeNLTDnwAvbh-2" target="hG35cT_2jclPZxar5-mF-14">
          <mxGeometry width="50" height="50" relative="1" as="geometry">
            <mxPoint x="571" y="533" as="sourcePoint" />
            <mxPoint x="621" y="483" as="targetPoint" />
          </mxGeometry>
        </mxCell>
        <mxCell id="hG35cT_2jclPZxar5-mF-19" value="Save Edit" style="ellipse;whiteSpace=wrap;html=1;" vertex="1" parent="1">
          <mxGeometry x="678" y="180" width="85" height="57" as="geometry" />
        </mxCell>
        <mxCell id="hG35cT_2jclPZxar5-mF-21" value="&amp;lt;&amp;lt;include&amp;gt;&amp;gt;" style="html=1;verticalAlign=bottom;labelBackgroundColor=none;endArrow=open;endFill=0;dashed=1;rounded=0;entryX=0.5;entryY=1;entryDx=0;entryDy=0;exitX=0;exitY=0.5;exitDx=0;exitDy=0;" edge="1" parent="1" source="qCOEzPy5PeNLTDnwAvbh-22" target="qCOEzPy5PeNLTDnwAvbh-44">
          <mxGeometry width="160" relative="1" as="geometry">
            <mxPoint x="871" y="198" as="sourcePoint" />
            <mxPoint x="714" y="296" as="targetPoint" />
          </mxGeometry>
        </mxCell>
        <mxCell id="hG35cT_2jclPZxar5-mF-24" value="&amp;lt;&amp;lt;include&amp;gt;&amp;gt;" style="html=1;verticalAlign=bottom;labelBackgroundColor=none;endArrow=open;endFill=0;dashed=1;rounded=0;entryX=1;entryY=1;entryDx=0;entryDy=0;exitX=0;exitY=0.5;exitDx=0;exitDy=0;" edge="1" parent="1" source="qCOEzPy5PeNLTDnwAvbh-22" target="qCOEzPy5PeNLTDnwAvbh-45">
          <mxGeometry width="160" relative="1" as="geometry">
            <mxPoint x="851" y="183" as="sourcePoint" />
            <mxPoint x="863" y="131" as="targetPoint" />
          </mxGeometry>
        </mxCell>
        <mxCell id="hG35cT_2jclPZxar5-mF-25" value="&amp;lt;&amp;lt;include&amp;gt;&amp;gt;" style="html=1;verticalAlign=bottom;labelBackgroundColor=none;endArrow=open;endFill=0;dashed=1;rounded=0;entryX=1;entryY=0.5;entryDx=0;entryDy=0;exitX=0;exitY=0.5;exitDx=0;exitDy=0;" edge="1" parent="1" source="qCOEzPy5PeNLTDnwAvbh-22" target="hG35cT_2jclPZxar5-mF-19">
          <mxGeometry width="160" relative="1" as="geometry">
            <mxPoint x="835" y="233" as="sourcePoint" />
            <mxPoint x="847" y="181" as="targetPoint" />
          </mxGeometry>
        </mxCell>
        <mxCell id="hG35cT_2jclPZxar5-mF-26" value="&amp;lt;&amp;lt;include&amp;gt;&amp;gt;" style="html=1;verticalAlign=bottom;labelBackgroundColor=none;endArrow=open;endFill=0;dashed=1;rounded=0;entryX=1;entryY=1;entryDx=0;entryDy=0;exitX=0;exitY=0.5;exitDx=0;exitDy=0;" edge="1" parent="1" source="qCOEzPy5PeNLTDnwAvbh-22" target="qCOEzPy5PeNLTDnwAvbh-46">
          <mxGeometry width="160" relative="1" as="geometry">
            <mxPoint x="916" y="168" as="sourcePoint" />
            <mxPoint x="928" y="116" as="targetPoint" />
          </mxGeometry>
        </mxCell>
      </root>
    </mxGraphModel>
  </diagram>
</mxfile>
